<?xml version="1.0" encoding="UTF-8" standalone="no"?>
<!-- Created with Inkscape (http://www.inkscape.org/) -->

<svg
   version="1.1"
   id="svg257"
   width="600"
   height="600.00031"
   viewBox="0 0 599.99997 600.00031"
   sodipodi:docname="linux.svg"
   inkscape:version="1.1.2 (0a00cf5339, 2022-02-04, custom)"
   inkscape:export-filename="/home/lorenzo/.config/swaylock/icons/0.png"
   inkscape:export-xdpi="48"
   inkscape:export-ydpi="48"
   xmlns:inkscape="http://www.inkscape.org/namespaces/inkscape"
   xmlns:sodipodi="http://sodipodi.sourceforge.net/DTD/sodipodi-0.dtd"
   xmlns="http://www.w3.org/2000/svg"
   xmlns:svg="http://www.w3.org/2000/svg">
  <defs
     id="defs261" />
  <sodipodi:namedview
     id="namedview259"
     pagecolor="#ffffff"
     bordercolor="#666666"
     borderopacity="1.0"
     inkscape:pageshadow="2"
     inkscape:pageopacity="0.0"
     inkscape:pagecheckerboard="0"
     showgrid="false"
     showguides="true"
     inkscape:guide-bbox="true"
     fit-margin-top="0"
     fit-margin-left="0"
     fit-margin-right="0"
     fit-margin-bottom="0"
     inkscape:zoom="0.65363177"
     inkscape:cx="351.11512"
     inkscape:cy="553.82865"
     inkscape:window-width="1918"
     inkscape:window-height="1038"
     inkscape:window-x="0"
     inkscape:window-y="0"
     inkscape:window-maximized="1"
     inkscape:current-layer="g263">
    <sodipodi:guide
       position="-15.568501,200.07785"
       orientation="0,-1"
       id="guide3576" />
    <sodipodi:guide
       position="443.85145,430.00208"
       orientation="-0.70710678,-0.70710678"
       id="guide23651" />
    <sodipodi:guide
       position="135.42719,232.80089"
       orientation="-0.70710678,-0.70710678"
       id="guide23653" />
    <sodipodi:guide
       position="117.74043,269.92767"
       orientation="-0.70710678,-0.70710678"
       id="guide23655" />
    <sodipodi:guide
       position="118.00652,110.69601"
       orientation="-0.70710678,-0.70710678"
       id="guide23657" />
    <sodipodi:guide
       position="164.11346,207.89453"
       orientation="-0.70710678,-0.70710678"
       id="guide25235" />
  </sodipodi:namedview>
  <g
     inkscape:groupmode="layer"
     inkscape:label="Image"
     id="g263"
     transform="translate(-745.33716,239.28156)">
    <circle
       style="fill:#ffb3ba;fill-opacity:1"
       id="path22638"
       cx="1045.3372"
       cy="60.718437"
       r="300" />
    <path
       id="path35409"
       style="fill:#ff5162;stroke:none;stroke-width:1px;stroke-linecap:butt;stroke-linejoin:miter;stroke-opacity:1;fill-opacity:1"
       d="M 316.9082 160.15039 L 153.78711 223.40234 L 117.74023 330.07227 L 171.0918 383.42383 L 164.11328 392.10547 L 179.61328 407.60547 L 179.18945 410.96289 L 135.42773 367.19922 L 131.57812 372.5293 L 118.00586 489.30469 L 216.8457 588.14453 A 300 300 0 0 0 300 600 A 300 300 0 0 0 598.25586 324.40234 L 443.85156 169.99805 L 400.93945 167.49023 L 316.9082 160.15039 z "
       transform="translate(745.33716,-239.28156)" />
    <g
       id="g22430"
       transform="matrix(1.215,0,0,1.215,-581.64598,-371.88162)">
      <path
         style="fill:#334050;fill-opacity:1;stroke-width:1.33333"
         d="m 1273.1607,337.50937 c -7.4635,-3.25379 -10.3702,-15.20314 -5.1295,-21.08766 3.4092,-3.82808 9.7626,-6.28897 14.0973,-5.46034 4.6579,0.89041 9.9632,6.19501 11.0233,11.022 1.1717,5.33453 -2.3141,12.78332 -7.1531,15.28566 -4.8425,2.50414 -7.5299,2.55444 -12.838,0.24034 z m 119.0171,-0.23896 c -4.0985,-2.22386 -7.6859,-8.22582 -7.6784,-12.8466 0.01,-5.1381 4.7991,-11.5166 9.6109,-12.7961 9.8213,-2.61158 18.3841,3.70095 18.3841,13.55282 0,10.82934 -10.7977,17.25477 -20.3166,12.08988 z"
         id="path3553"
         sodipodi:nodetypes="ssssssscsss" />
      <path
         style="fill:#334050;fill-opacity:1;stroke-width:1.33333"
         d="m 1362.8055,516.05614 c -14.612,-6.65135 -13.6887,-24.0317 -13.7484,-37.47093 -0.1614,-12.18615 -0.06,-24.374 -0.093,-36.56095 6.6667,0 13.3334,0 20.0001,0 0.2968,17.31979 -0.8745,34.78052 1.3231,51.98088 9.8478,11.83705 25.1456,-0.64577 21.1842,-13.79587 0.2777,-12.72607 0.1153,-25.45672 0.1593,-38.18501 6.6667,0 13.3333,0 20,0 0,24.88889 0,49.77778 0,74.66667 -6.6667,0 -13.3333,0 -20,0 -0.5382,-2.66433 1.6162,-11.68828 -2.3577,-6.23796 -6.221,8.38281 -17.3232,8.44159 -26.4671,5.60317 z m -170.6406,-1.89461 c -10.2363,-6.15763 -7.2511,-20.13201 -8.36,-30.18632 -0.3112,-24.20429 -0.1231,-48.4118 -0.175,-72.61762 6.6667,0 13.3333,0 20,0 0.1973,26.49173 -0.5171,53.00963 0.6349,79.47922 2.0351,8.00598 12.3926,8.93496 8.6984,19.80415 1.1417,5.12903 -0.686,7.28697 -5.91,6.04642 -5.0358,-0.0106 -10.4053,0.14158 -14.8883,-2.52585 z m 34.1316,-34.80394 c 0,-12.44444 0,-24.88889 0,-37.33333 6.6667,0 13.3334,0 20,0 0,24.88889 0,49.77778 0,74.66667 -6.6666,0 -13.3333,0 -20,0 0,-12.44445 0,-24.88889 0,-37.33334 z m 38.6667,0 c 0,-12.44444 0,-24.88889 0,-37.33333 6.6667,0 13.3333,0 20,0 0.5454,2.64869 -1.6614,11.37615 2.4673,6.10993 9.9442,-11.36105 30.1206,-9.0694 37.1117,4.36096 6.0896,12.27449 3.1874,26.57869 4.2421,39.80203 0.1229,8.13125 0.2458,16.2625 0.3686,24.39375 -6.676,0 -13.352,0 -20.0281,0 -0.5568,-16.68348 0.1801,-33.4718 -1.6023,-50.06668 -6.4579,-12.4363 -26.9158,-3.82037 -22.0222,10.08692 -0.3358,13.3247 -0.4965,26.6532 -0.7449,39.97976 -6.5974,0 -13.1948,0 -19.7922,0 0,-12.44445 0,-24.88889 0,-37.33334 z m 160.7767,35.66667 c 7.7086,-12.39754 15.6528,-24.64668 23.4952,-36.95977 -7.6697,-11.80683 -15.7309,-23.37388 -22.9385,-35.47019 7.2137,-0.90551 14.5499,0.0103 21.8145,0.0966 3.8199,5.8513 6.804,12.33284 11.3838,17.62351 6.3852,-1.82057 7.7815,-11.48049 11.5447,-17.0579 2.2244,-2.83946 7.6563,-0.44171 11.1355,-1.23228 8.9766,-1.96939 12.8425,2.46987 6.1326,9.43622 -4.6715,10.50819 -15.552,20.73441 -15.0274,31.99889 6.7537,11.02101 14.4886,21.42285 21.0163,32.57952 -7.2198,1.04544 -14.6007,0.0516 -21.8887,-0.0146 -4.2226,-6.88348 -7.8561,-14.18982 -12.778,-20.60127 -5.1634,6.63235 -9.0612,14.16087 -13.5361,21.26794 -6.771,-0.44594 -14.2193,1.09553 -20.4746,-1.22981 z M 1227.24,431.85665 c -1.5265,-6.69682 -0.7521,-13.66973 -0.9434,-20.49906 6.704,0 13.4081,0 20.1121,0 -0.2596,6.88889 -0.5192,13.77778 -0.7788,20.66667 -6.1109,0.0713 -12.3797,1.15151 -18.3899,-0.16761 z"
         id="path3555"
         sodipodi:nodetypes="ssccccsssscccccccccsssssscccssssccsscccccccccccccccssscccssssccccsscssscsscssssssscscscsssscccccss" />
      <path
         style="fill:#ff8516;fill-opacity:1;stroke-width:1.33333"
         d="m 1326.9468,371.87743 c -5.491,-5.58076 -9.9836,-10.91656 -9.9836,-11.85734 0,-2.83196 3.3852,-3.32916 22.6667,-3.32916 19.0315,0 22.6667,0.50901 22.6667,3.17393 0,2.47028 -20.4769,22.1594 -23.046,22.1594 -1.2762,0 -6.8129,-4.56607 -12.3038,-10.14683 z"
         id="path3676"
         sodipodi:nodetypes="ssssss" />
      <path
         style="fill:#334050;fill-opacity:1;stroke-width:1.33333"
         d="m 1189.0729,380.80057 c -6.4571,-11.68463 -4.2308,-26.02955 -4.5408,-38.94758 1.7708,-56.9099 38.1999,-110.7757 90.2962,-133.70444 49.4978,-22.91621 110.8494,-16.95664 154.76,15.50422 40.217,28.67952 66.5205,77.20268 64.8806,127.00057 -1.3932,10.6436 3.5764,28.2508 -9.5896,32.10607 -10.6954,-0.70778 -33.2197,6.48425 -32.9648,-10.33902 3.8556,-23.40374 3.4914,-50.31528 -13.1772,-69.0307 -17.5367,-20.22884 -49.4751,-22.89286 -71.779,-9.18466 -12.654,6.95779 -27.9302,12.46108 -41.9957,6.10137 -12.3286,-5.16163 -23.6109,-13.67239 -37.4879,-14.34093 -27.8228,-3.85499 -56.2214,16.84869 -60.5619,44.67353 -2.2816,15.35765 -1.0303,30.92407 0.3178,46.26798 -7.0571,11.40891 -24.9279,5.47286 -36.2995,5.23138 z"
         id="path3853"
         sodipodi:nodetypes="ssssssssssssssssss" />
    </g>
  </g>
</svg>
